<svg width="24" height="24" viewBox="0 0 24 24" fill="none" xmlns="http://www.w3.org/2000/svg">
<path d="M21.8551 18.4821C20.6698 16.5233 20.0294 14.2834 20.0001 11.9941V8.0061C20.0001 5.88437 19.1573 3.84954 17.657 2.34925C16.1567 0.848958 14.1218 0.00610352 12.0001 0.00610352C9.87838 0.00610352 7.84354 0.848958 6.34325 2.34925C4.84296 3.84954 4.00011 5.88437 4.00011 8.0061V11.9881C3.97182 14.2794 3.33137 16.5215 2.14511 18.4821C2.05328 18.6337 2.00341 18.8071 2.00061 18.9843C1.99782 19.1616 2.04219 19.3364 2.12919 19.4909C2.21619 19.6453 2.34269 19.7739 2.49572 19.8634C2.64876 19.9528 2.82283 20 3.00011 20.0001H21.0001C21.1774 20 21.3515 19.9528 21.5045 19.8634C21.6575 19.7739 21.784 19.6453 21.871 19.4909C21.958 19.3364 22.0024 19.1616 21.9996 18.9843C21.9968 18.8071 21.9469 18.6337 21.8551 18.4821Z" fill="white"/>
<path d="M13.0073 23.8251C13.4264 23.6758 13.8071 23.4351 14.1217 23.1205C14.4363 22.8059 14.677 22.4252 14.8263 22.0061H9.17432C9.30655 22.3772 9.51059 22.7187 9.77478 23.0109C10.039 23.3032 10.3582 23.5406 10.7141 23.7095C11.07 23.8784 11.4557 23.9755 11.8492 23.9954C12.2427 24.0152 12.6362 23.9574 13.0073 23.8251Z" fill="white"/>
</svg>
